HIERARCHY
ROOT Hips
{
	OFFSET -3.958830 18.904000 13.208200
	CHANNELS 6 Xposition Yposition Zposition Zrotation Yrotation Xrotation 
	JOINT LHipJoint
	{
		OFFSET 0.000000 0.000000 0.000000
		CHANNELS 3 Zrotation Yrotation Xrotation
		JOINT LeftUpLeg
		{
			OFFSET 1.800000 -1.400000 0.085000
			CHANNELS 3 Zrotation Yrotation Xrotation
			JOINT LeftLeg
			{
				OFFSET 2.215000 -6.000000 0.000000
				CHANNELS 3 Zrotation Yrotation Xrotation
				JOINT LeftFoot
				{
					OFFSET 2.500000 -6.900000 0.000000
					CHANNELS 3 Zrotation Yrotation Xrotation
					JOINT LeftToeBase
					{
						OFFSET 0.200000 -0.500000 1.950000
						CHANNELS 3 Zrotation Yrotation Xrotation
						End Site
						{
							OFFSET 0.000000 0.000000 0.000000
						}
					}
				}
			}
		}
	}
	JOINT RHipJoint
	{
		OFFSET 0.000000 0.000000 0.000000
		CHANNELS 3 Zrotation Yrotation Xrotation
		JOINT RightUpLeg
		{
			OFFSET -1.800000 -1.400000 0.085000
			CHANNELS 3 Zrotation Yrotation Xrotation
			JOINT RightLeg
			{
				OFFSET -2.215000 -6.000000 0.000000
				CHANNELS 3 Zrotation Yrotation Xrotation
				JOINT RightFoot
				{
					OFFSET -2.500000 -6.900000 0.000000
					CHANNELS 3 Zrotation Yrotation Xrotation
					JOINT RightToeBase
					{
						OFFSET -0.200000 -0.500000 1.950000
						CHANNELS 3 Zrotation Yrotation Xrotation
						End Site
						{
							OFFSET 0.000000 0.000000 0.000000
						}
					}
				}
			}
		}
	}
	JOINT LowerBack
	{
		OFFSET 0.000000 0.000000 0.000000
		CHANNELS 3 Zrotation Yrotation Xrotation
		JOINT Spine
		{
			OFFSET -0.087000 1.940000 -0.288900
			CHANNELS 3 Zrotation Yrotation Xrotation
			JOINT Spine1
			{
				OFFSET 0.000000 1.950000 0.060000
				CHANNELS 3 Zrotation Yrotation Xrotation
				JOINT Neck
				{
					OFFSET 0.000000 0.000000 0.000000
					CHANNELS 3 Zrotation Yrotation Xrotation
					JOINT Neck1
					{
						OFFSET 0.000000 1.600000 0.340000
						CHANNELS 3 Zrotation Yrotation Xrotation
						JOINT Head
						{
							OFFSET 0.000000 1.667000 -0.240000
							CHANNELS 3 Zrotation Yrotation Xrotation
							End Site
							{
								OFFSET 0.000000 0.000000 0.000000
							}
						}
					}
				}
				JOINT LeftShoulder
				{
					OFFSET 0.000000 0.000000 0.000000
					CHANNELS 3 Zrotation Yrotation Xrotation
					JOINT LeftArm
					{
						OFFSET 2.700000 1.550000 -0.730000
						CHANNELS 3 Zrotation Yrotation Xrotation
						JOINT LeftForeArm
						{
							OFFSET 5.450000 0.000000 0.000000
							CHANNELS 3 Zrotation Yrotation Xrotation
							JOINT LeftHand
							{
								OFFSET 3.450000 0.000000 0.000000
								CHANNELS 3 Zrotation Yrotation Xrotation
								JOINT LeftHandIndex1
								{
									OFFSET 0.750000 0.000000 0.000000
									CHANNELS 3 Zrotation Yrotation Xrotation
									End Site
									{
										OFFSET 0.000000 0.000000 0.000000
									}
								}
							}
						}
					}
				}
				JOINT RightShoulder
				{
					OFFSET 0.000000 0.000000 0.000000
					CHANNELS 3 Zrotation Yrotation Xrotation
					JOINT RightArm
					{
						OFFSET -2.700000 1.550000 -0.730000
						CHANNELS 3 Zrotation Yrotation Xrotation
						JOINT RightForeArm
						{
							OFFSET -5.450000 0.000000 0.000000
							CHANNELS 3 Zrotation Yrotation Xrotation
							JOINT RightHand
							{
								OFFSET -3.450000 0.000000 0.000000
								CHANNELS 3 Zrotation Yrotation Xrotation
								JOINT RightHandIndex1
								{
									OFFSET -0.750000 0.000000 0.000000
									CHANNELS 3 Zrotation Yrotation Xrotation
									End Site
									{
										OFFSET 0.000000 0.000000 0.000000
									}
								}
							}
						}
					}
				}
			}
		}
	}
}
MOTION
Frames: 8
Frame Time: 0.016667
0.293660 16.806810 -2.202320 -1.981368 -2.032757 -2.687987 -14.581364 13.387532 3.431364 0.494981 -2.109195 -12.206361 -9.621618 6.529267 16.079680 0.526562 3.402342 3.347548 0.530580 0.314710 0.591560 18.504905 -11.830472 2.963778 -4.845099 0.768872 -11.277304 8.920935 -6.999682 20.695527 -0.578158 -3.688209 3.128680 -0.206060 -0.528970 0.164090 -4.692317 -0.239477 -8.102732 29.597697 -4.793592 16.695266 -26.240059 3.381779 -4.356616 12.368798 2.160013 -15.310495 1.422786 -13.428798 57.412667 -6.432760 -13.823560 -7.997740 -22.542372 -2.141284 2.543126 -48.052380 10.214928 -10.142372 -7.068495 -16.902709 -0.179977 -2.834403 3.169383 0.398100 -0.500310 0.563790 0.255440 -4.751167 8.824038 14.499572 21.584057 -21.911412 -13.299067 -70.934806 56.068044 -32.441347 2.483239 -1.270550 0.375210 -0.199560 -0.545350 0.062540 
0.292170 16.796150 -2.205750 -1.954063 -1.829947 -2.683165 -14.606322 13.413592 3.452755 0.462412 -2.206494 -12.600535 -9.570139 6.599128 16.640743 0.510886 3.439856 3.325931 0.526000 0.303950 0.602450 18.469087 -11.825631 2.975332 -4.828190 0.861725 -11.397455 8.973390 -7.048459 20.980020 -0.581416 -3.700480 3.117373 -0.208910 -0.542910 0.166090 -4.610476 -0.266893 -8.139004 29.162765 -4.501316 17.197352 -25.778186 3.717581 -5.238465 12.441536 2.701416 -15.408800 2.912420 -14.481512 57.370085 -7.155100 -13.867290 -8.497530 -23.069017 -1.839919 2.385637 -47.735270 10.533676 -10.185592 -7.163831 -17.119628 -0.160521 -2.830549 3.158536 0.415240 -0.505560 0.570500 0.241890 -4.477826 8.541905 14.745618 23.006758 -21.435482 -13.465822 -72.208127 53.878555 -32.280197 2.535809 -1.310081 0.367540 -0.200600 -0.538380 0.048310 
0.288340 16.783110 -2.209160 -1.954179 -1.677509 -2.679705 -14.637980 13.455216 3.478828 0.521169 -2.323919 -13.115628 -9.564334 6.728438 17.407926 0.505473 3.505609 3.293209 0.522160 0.290970 0.611930 18.424299 -11.808420 2.988815 -4.759875 0.999327 -11.595543 9.047112 -7.126084 21.461151 -0.586221 -3.724824 3.103554 -0.216260 -0.556730 0.171060 -4.505292 -0.334522 -8.182206 28.587036 -4.163525 17.819599 -25.082792 4.093000 -6.392574 12.488955 3.110470 -15.457583 4.221498 -15.389135 57.423020 -7.834240 -13.885200 -8.906290 -23.648488 -1.260546 2.125532 -47.496962 10.884080 -10.231037 -7.278581 -17.342106 -0.130757 -2.827056 3.151903 0.431210 -0.511360 0.576450 0.230280 -4.094550 8.112957 14.958819 24.627130 -21.129640 -13.655372 -75.547162 52.249796 -33.829562 2.562813 -1.303136 0.364110 -0.206430 -0.531940 0.035430 
0.282350 16.768080 -2.210400 -2.016734 -1.554397 -2.641845 -14.676150 13.506521 3.506966 0.689701 -2.453714 -13.758893 -9.590508 6.905993 18.313147 0.502487 3.595016 3.250877 0.512650 0.270810 0.617950 18.372385 -11.778209 3.005586 -4.620830 1.180721 -11.867979 9.150825 -7.226590 22.085972 -0.588329 -3.759503 3.087688 -0.226950 -0.570490 0.173360 -4.379912 -0.431797 -8.229148 27.939669 -3.771559 18.508033 -24.191270 4.526781 -7.830918 12.503518 3.440868 -15.410636 5.449514 -16.255815 57.353983 -8.600450 -13.826870 -9.309330 -24.313680 -0.350747 1.746284 -47.240494 11.319236 -10.286496 -7.526135 -17.636812 -0.068674 -2.823843 3.144149 0.446950 -0.516670 0.578020 0.215510 -3.572909 7.425371 15.130650 26.405082 -21.012588 -13.788494 -80.629471 51.174860 -37.064098 2.569134 -1.259698 0.357830 -0.214150 -0.522550 0.020570 
0.275780 16.751490 -2.208790 -2.116366 -1.417219 -2.544201 -14.719727 13.560255 3.536714 0.911311 -2.585431 -14.483930 -9.627841 7.102053 19.235250 0.504646 3.691523 3.204250 0.497930 0.244240 0.619620 18.315723 -11.735962 3.025518 -4.475154 1.400844 -12.229090 9.343272 -7.363337 22.793529 -0.591132 -3.806513 3.066015 -0.243470 -0.585100 0.177130 -4.240582 -0.547795 -8.277661 27.218096 -3.360179 19.165411 -23.161035 4.990975 -9.487115 12.450685 3.748364 -15.332931 6.733870 -17.113186 57.198634 -9.429240 -13.665960 -9.602470 -25.013740 0.814887 1.311813 -46.945576 11.915392 -10.360536 -7.984035 -17.993155 0.037289 -2.818018 3.143425 0.461570 -0.522370 0.578200 0.198960 -2.910443 6.507504 15.307396 28.429125 -21.002091 -13.816013 -87.185487 50.304381 -41.979770 2.573993 -1.207947 0.353160 -0.227640 -0.510350 0.005920 
0.268030 16.733390 -2.203730 -2.199217 -1.268173 -2.355161 -14.764202 13.600758 3.568595 1.111804 -2.730337 -15.294412 -9.654105 7.304813 20.166531 0.510732 3.789688 3.157384 0.478720 0.207390 0.623800 18.259761 -11.693523 3.048626 -4.346240 1.664838 -12.731132 9.576359 -7.525398 23.593541 -0.592175 -3.863941 3.040078 -0.267600 -0.601370 0.182790 -4.101126 -0.638389 -8.324412 26.401114 -2.897774 19.715320 -22.072195 5.502863 -11.284971 12.286648 4.074685 -15.264681 8.178300 -18.047068 56.863680 -10.365990 -13.402900 -9.675610 -25.631378 2.223938 0.856299 -46.643404 12.669577 -10.481276 -8.605180 -18.537787 0.197591 -2.809725 3.147289 0.476240 -0.527190 0.576150 0.178300 -2.161856 5.351160 15.533296 30.839853 -21.071086 -13.737177 -94.808253 49.407231 -48.593427 2.597011 -1.180434 0.348900 -0.248270 -0.497740 -0.011570 
0.259030 16.712800 -2.196820 -2.244247 -1.066260 -2.143885 -14.801434 13.613753 3.597254 1.274795 -2.878736 -16.110335 -9.675990 7.516160 21.101078 0.520879 3.891265 3.109859 0.452190 0.162460 0.625160 18.214169 -11.664548 3.071728 -4.289741 1.937973 -13.287698 9.842613 -7.724524 24.459540 -0.595034 -3.938908 3.007270 -0.297830 -0.615980 0.188310 -3.987757 -0.662955 -8.360426 25.573307 -2.445704 20.095562 -21.044981 5.972636 -12.899683 11.993564 4.417724 -15.249766 9.733303 -18.999726 56.377963 -11.323040 -13.038520 -9.681710 -26.033472 3.632442 0.454709 -46.413489 13.331600 -10.570694 -9.325896 -19.033001 0.392307 -2.803696 3.149204 0.490380 -0.531670 0.573770 0.155540 -1.416342 4.122498 15.821283 33.818996 -21.042290 -13.671966 -102.905381 48.476559 -56.904903 2.644572 -1.200447 0.343680 -0.269010 -0.481800 -0.028730 
0.250750 16.690860 -2.189460 -2.352885 -0.821736 -1.973420 -14.827629 13.606244 3.616466 1.495203 -3.016016 -16.884654 -9.678160 7.746910 22.095017 0.528016 4.014738 3.056587 0.418320 0.108500 0.620900 18.183315 -11.643439 3.097932 -4.225836 2.213147 -13.815431 10.157419 -7.965840 25.362255 -0.600005 -4.037167 2.965752 -0.330280 -0.625180 0.192280 -3.912012 -0.638411 -8.382950 24.969067 -2.070299 20.327205 -20.124845 6.355150 -14.213548 11.593698 4.721782 -15.242700 11.204319 -19.857157 55.773397 -12.205000 -12.648280 -9.593820 -26.355713 4.890649 0.136230 -46.254184 13.913554 -10.632211 -10.012644 -19.419100 0.584558 -2.802851 3.146005 0.506200 -0.533180 0.566420 0.129940 -0.571590 2.948878 16.077619 37.022524 -20.914991 -13.668046 -111.019824 47.482760 -66.571008 2.705543 -1.283903 0.332600 -0.286920 -0.459300 -0.047820 
